<svg xmlns="http://www.w3.org/2000/svg" xmlns:xlink="http://www.w3.org/1999/xlink" viewBox="0 0 1025 762.49"><defs><style>.cls-1{fill:url(#linear-gradient);}</style><linearGradient id="linear-gradient" x1="861.33" y1="26.46" x2="51.49" y2="836.3" gradientUnits="userSpaceOnUse"><stop offset="0" stop-color="#ce2230"/><stop offset="1" stop-color="#f26e4d"/></linearGradient></defs><g id="Layer_2" data-name="Layer 2"><g id="Layer_1-2" data-name="Layer 1"><path class="cls-1" d="M1025,0V750.57a128,128,0,0,1-117.88-5.19,127.91,127.91,0,0,1-133.44-3.44,127.91,127.91,0,0,1-133.44,3.44,128,128,0,0,1-127.84,0,127.93,127.93,0,0,1-127.83,0,127.91,127.91,0,0,1-133.44-3.44,127.93,127.93,0,0,1-133.45,3.44A128,128,0,0,1,0,750.67V0Z"/></g></g></svg>