<svg xmlns="http://www.w3.org/2000/svg" xmlns:xlink="http://www.w3.org/1999/xlink" viewBox="0 0 500 366.59"><defs><style>.cls-1{fill:url(#linear-gradient);}.cls-2{fill:#fff;}</style><linearGradient id="linear-gradient" x1="192.55" y1="95.77" x2="384.1" y2="95.77" gradientUnits="userSpaceOnUse"><stop offset="0" stop-color="#fff" stop-opacity="0"/><stop offset="1" stop-color="#f5cc33"/></linearGradient></defs><g id="Layer_2" data-name="Layer 2"><g id="Layer_1-2" data-name="Layer 1"><circle class="cls-1" cx="343.54" cy="95.77" r="95.77"/><path class="cls-2" d="M114.3,255.08C104,268.48,93.86,282,83.41,295.21c-2.17,2.75-5.38,4.67-8.12,7-1.11-3.91-3.76-8.12-3.08-11.68,3.37-17.59,6.22-35.48,11.89-52.38,7.94-23.63,19-46.09,34.61-65.85,5.09-6.45,11.15-15.3,20.17-10.89,8.69,4.25,4.75,14.26,2.93,21.67-5.95,24.26-19.19,44.61-37.23,61.36-11.51,10.69-16.19,23.68-19.43,39.86,7.18-9,13.26-16.7,19.46-24.3,2.52-3.09,4.83-6.77,8.1-8.73,3.82-2.27,8.58-2.94,12.94-4.31.33,4.51,1.93,9.38.75,13.45-3.22,11.07-7.69,21.76-11.46,32.68-.71,2.06-.5,4.45-.71,6.68l2.52,2.08c6.59-7.27,14-13.95,19.53-22,6-8.75,10.09-18.56,21.08-22.93,2.7-1.08,3.77-6,5.85-8.94,3.57-5.07,7.81-10,14.75-7.24s11.67,8,10.82,16.13c-.58,5.49-1.93,10.91-2.95,16.43,14,.09,16.52-2.13,19.3-16.95.79-4.22-.88-11.1,6.54-9.32,6.58,1.58,6.43,8,4.72,13.3-3.73,11.59-8,23-9.9,35.6,4.13-6.43,8.09-13,12.44-19.27,6.63-9.56,13-19.38,20.47-28.25,6.69-7.95,15.07-6.14,16.45,4,1.25,9.28-1.29,19.08-2.15,28.63l18.59-8.25,1.14,1.91c-5.27,3.65-10.78,7-15.75,11C248.26,293.4,238.76,301,230,309.39c-9.41,9-11,9-16.41-2.72,17-13,30-28.57,31.9-51.1-31.75,30.06-55.52,64.56-58,111-11.19-3.15-11.76-10.92-10.09-17.75,5.18-21.22,11.38-42.18,17.25-63.22.67-2.4,1.8-4.67,2.93-7.55-8.77-.78-15,.45-19.21,8.35-2.74,5.13-7.32,9.42-11.57,13.57-12.42,12.13-23.27,9.91-32.88-7.15-3.34,4.72-6.27,9.3-9.65,13.53s-6.72,9.94-13.78,6.52c-6.61-3.2-10.92-8.8-9.12-16,2.38-9.57,6.31-18.76,9.83-28,1.6-4.21,3.81-8.18,5.75-12.26Zm53.53,22-12.94-7.17c-3,7.76-6.66,15.51-9,23.63-2,6.76,2.34,10.49,7.92,6.62,6.56-4.54,11.72-11.19,17-17.32.53-.61-2.09-4-3.29-6.07,11.06-2.55,17.11-20.95,10.36-31.54C165.22,251,160.14,267.05,167.83,277.09ZM137,169.14C121,191,102.55,211.65,100.24,240.36,118.79,219.84,133.66,197.44,137,169.14Z"/><path class="cls-2" d="M296.19,136.12l-80.81-4.7.25-.71c22.39-2.62,44.82-5,67.16-8,7.17-1,14-4,21.13-5.75,13.07-3.22,19.43,1.68,17.09,14.54-4.3,23.6-16.92,43.29-33.11,60.28-4.09,4.3-12.75,5.29-19.47,5.86-22.8,1.91-45.67,3.3-68.54,4-3.52.11-8.39-3.85-10.42-7.25-1.74-2.91-1.93-9.27.06-11.37,4.66-4.9,3.85-8.81,1.66-14.18-6.4-15.67-12-31.67-18.62-47.23-1.3-3-5.44-5.62-8.84-6.86-4.88-1.79-10.28-2.17-15.31-3.12C147,98.22,153.31,93,165,97.2c6.23,2.26,12.45,4.76,18.89,6.16,8.82,1.92,9.89,7.72,10.55,15.42,1.52,17.73,3.71,35.43,6.58,53,.48,3,5.62,7.21,8.75,7.34,19.49.77,39.14,1.88,58.52.25C284.88,178,298.87,155,296.19,136.12Z"/><path class="cls-2" d="M461.55,238.18H431.61l-.21-2.61c8-.57,16-1.47,24-1.59,6.39-.1,10.17-2.24,12.86-8.5,3.37-7.87,8.37-15,12.6-22.55s10.28-8.23,18.94-4.77c-6.69,11.15-13,21.74-20.46,34.12h20.46c.07,1,.15,2.05.22,3.07-5.55.69-11.21.94-16.61,2.23-3,.73-7.18,2.52-8.24,5-9.37,21.65-18.23,43.53-23.15,66.73-.73,3.48-1,7.07-1.41,10.6l3,2,39.51-48,1.42.62c-.55,1.89-.63,4.12-1.72,5.61-11.21,15.29-22.29,30.7-34.16,45.48-2.52,3.14-9.48,6.42-11.91,5.1-3.74-2-7.6-8.14-7.39-12.3.57-11.12,3.29-22.12,5.3-34-5.81,3.46-11.33,6-15.83,9.77-2.22,1.86-2.92,5.89-3.67,9.09-1.65,7-1.49,14.73-4.62,20.87-4.83,9.45-19.38,11.85-28.07,5.75-6.61-4.64-7.74-11.2-2.62-17.21A67.4,67.4,0,0,1,405.69,299c5.37-3.3,6.19-6.71,4.8-12.34a112.64,112.64,0,0,1-3.57-21.59,20.2,20.2,0,0,1,3.73-11.68c1.43-2,5.54-2.17,8.45-3.17.16,2.69.31,5.38.49,8.07.67,9.75,1.34,19.49,2,29.41C449.67,282,455.24,260.6,461.55,238.18Zm-48.84,63.49c-8.57,6.64-18.52,9.75-20.1,21.42C406.23,325.48,411.7,320.09,412.71,301.67Z"/><path class="cls-2" d="M19,278.86c-2.43,7.1-5.78,13.7-6.69,20.62-.66,5,.27,12.69,3.5,15s11,1.33,15.6-.79c14-6.5,18.28-19.61,12.78-34.19s-11.58-29-15.8-43.93C24.79,223,33.18,209,47.19,200.27c12.39-7.72,26.11-8,36.56-.34,6.06,4.43,9.07,10.17,3.71,16.94-5.84,7.36-12.29,14.24-18.47,21.32l-3.32-2.58c3-4.22,6.94-8.08,8.81-12.76,2.29-5.71,2.85-12.11,4.16-18.22-6.15.66-13.11-.33-18.29,2.26-16.5,8.23-21.59,22.82-15.09,40.31,3.45,9.28,7.4,18.39,11.54,27.38,6.8,14.81,4.49,28.18-7.35,40.06-8.79,8.81-30.88,13.2-41.12,6.8-4-2.51-7.71-8.48-8.17-13.21C-1.28,293.61,7.25,280.94,19,278.86Z"/><path class="cls-2" d="M317.46,304.57c-9.58,10.95-19.57,21.92-34.73,25.18-11.67,2.5-20-9.17-15.72-20.16,3.52-9,6.86-18,9.89-27.13,1.85-5.61,7-12-4.46-16.57,18.54-2.15,16-17,20.48-26.94,2.55-5.66,3.92-11.84,6-18.31-2.37-.66-4.53-.74-6-1.79-2.17-1.55-3.84-3.79-5.72-5.74,2.12-1.18,4.13-3,6.39-3.42,5.24-.94,10.75-.67,12.42-7.69.22-.93,5-2.18,6-1.33,11.27,9.43,23.39,2.5,35.12,2.21,5.52-.14,11-.63,16.57-1,.16.84.32,1.68.49,2.51-13.58,3.26-27.1,6.84-40.77,9.63-6.14,1.25-10,3.4-12,9.85-3.73,12-8.44,23.63-13.18,36.61l30.39-2.39.33,2c-8.91,2.08-17.85,4-26.69,6.33-2.66.7-6.58,1.89-7.3,3.83-5.81,15.7-11,31.63-16.38,47.49l2.09,2.18,35.24-17.84Z"/><path class="cls-2" d="M369.65,265.89c1.31-1.05,2.2-2.3,3.33-2.56,3.21-.76,6.52-1.11,9.8-1.61.31,3.32,1.49,6.84.76,9.92-2.52,10.76-5.71,21.36-8.64,32l4.16,2.23c4.33-5.25,8.88-10.34,12.95-15.78s7.67-11.21,12.4-16.25c-5.29,14.62-11.8,28.63-23.79,38.95-5.95,5.11-13.92,1.26-15.22-7.5-1-7.05-.21-14.39-.21-21.73-4.11,5.4-8.11,12-13.46,17.21-3.4,3.32-8.8,4.6-13.3,6.79-1.94-4.91-6.21-10.29-5.34-14.62,2.07-10.18,5.1-20.77,10.46-29.52C352,249.59,361.44,250.69,369.65,265.89Zm-26.11,33.85c20-17.71,23.79-27.09,16.53-41.61C349.23,269.67,345.5,282.8,343.54,299.74Z"/><path class="cls-2" d="M282.64,208.51c0,3.06-.65,5.6.11,7.6,3.13,8.17,1,15.47-5.69,17.77-5.85,2-15.6-3.69-17.29-10.11-1.62-6.18,4.73-14.27,12.28-15.19C275.61,208.15,279.27,208.51,282.64,208.51Z"/><path class="cls-2" d="M214.74,208.34c.41,2.94,0,6,1.25,7.81,4.36,6.32,1.25,11.55-3.34,14.46-3.31,2.09-10,2.59-13,.55-3.48-2.4-6.77-8.74-6-12.56s6-7.82,10.24-9.95C207,207.07,211.58,208.34,214.74,208.34Z"/></g></g></svg>